<svg width="459" height="199" viewBox="0 0 459 199" fill="none" xmlns="http://www.w3.org/2000/svg">
<path d="M25.9025 78H17.3644L42.0593 10.7459H50.4661L75.1609 78H66.6228L46.5254 21.3857H46L25.9025 78ZM29.0551 51.7288H63.4703V58.9534H29.0551V51.7288ZM79.962 78V27.5594H87.4493V35.4407H88.106C89.1569 32.7479 90.8536 30.6572 93.1961 29.1685C95.5386 27.6579 98.3518 26.9026 101.636 26.9026C104.963 26.9026 107.733 27.6579 109.944 29.1685C112.177 30.6572 113.917 32.7479 115.165 35.4407H115.691C116.982 32.8355 118.92 30.7667 121.503 29.2342C124.087 27.6798 127.184 26.9026 130.797 26.9026C135.307 26.9026 138.995 28.3147 141.863 31.1388C144.731 33.9411 146.165 38.3087 146.165 44.2416V78H138.415V44.2416C138.415 40.5198 137.397 37.8599 135.361 36.2617C133.325 34.6635 130.928 33.8645 128.17 33.8645C124.623 33.8645 121.875 34.9372 119.927 37.0827C117.979 39.2063 117.004 41.8991 117.004 45.1611V78H109.123V43.4534C109.123 40.5855 108.193 38.2758 106.332 36.5244C104.471 34.7511 102.074 33.8645 99.1399 33.8645C97.1258 33.8645 95.243 34.4008 93.4916 35.4736C91.7621 36.5463 90.361 38.035 89.2882 39.9397C88.2374 41.8224 87.712 44.0008 87.712 46.4746V78H79.962ZM187.5 57.3771V27.5594H195.25V78H187.5V69.4619H186.974C185.792 72.0233 183.953 74.2016 181.457 75.9968C178.962 77.7701 175.809 78.6568 172 78.6568C168.847 78.6568 166.045 77.9672 163.593 76.5879C161.141 75.1868 159.214 73.0851 157.813 70.2828C156.412 67.4587 155.712 63.9011 155.712 59.6102V27.5594H163.462V59.0848C163.462 62.7627 164.491 65.6963 166.548 67.8856C168.628 70.0749 171.277 71.1695 174.495 71.1695C176.422 71.1695 178.381 70.6769 180.374 69.6917C182.388 68.7066 184.073 67.196 185.431 65.16C186.81 63.124 187.5 60.5297 187.5 57.3771ZM212.045 59.6102L211.914 50.0212H213.49L235.558 27.5594H245.147L221.634 51.3348H220.977L212.045 59.6102ZM204.821 78V10.7459H212.571V78H204.821ZM236.871 78L217.168 53.0424L222.685 47.6568L246.723 78H236.871ZM269.569 79.0508C264.709 79.0508 260.516 77.9781 256.992 75.8326C253.489 73.6653 250.785 70.6441 248.881 66.7691C246.998 62.8722 246.056 58.3404 246.056 53.1738C246.056 48.0071 246.998 43.4534 248.881 39.5128C250.785 35.5502 253.434 32.4633 256.828 30.2522C260.243 28.0191 264.227 26.9026 268.781 26.9026C271.408 26.9026 274.002 27.3405 276.564 28.2162C279.125 29.0919 281.457 30.5149 283.558 32.4852C285.66 34.4337 287.335 37.017 288.583 40.2352C289.831 43.4534 290.455 47.416 290.455 52.1229V55.4068H251.573V48.7077H282.573C282.573 45.8616 282.004 43.3221 280.866 41.089C279.749 38.856 278.151 37.0936 276.071 35.802C274.013 34.5103 271.583 33.8645 268.781 33.8645C265.694 33.8645 263.023 34.6307 260.768 36.1632C258.535 37.6738 256.817 39.6441 255.613 42.0742C254.408 44.5043 253.806 47.1095 253.806 49.8899V54.356C253.806 58.1653 254.463 61.3944 255.777 64.0435C257.112 66.6706 258.962 68.6737 261.327 70.053C263.691 71.4103 266.438 72.089 269.569 72.089C271.605 72.089 273.444 71.8044 275.086 71.2352C276.75 70.6441 278.184 69.7684 279.388 68.6081C280.592 67.4259 281.522 65.9591 282.179 64.2076L289.667 66.3093C288.878 68.8489 287.554 71.0819 285.693 73.0085C283.832 74.9131 281.533 76.4018 278.797 77.4746C276.06 78.5254 272.984 79.0508 269.569 79.0508ZM305.37 10.7459V78H297.62V10.7459H305.37ZM336.089 79.0508C331.229 79.0508 327.037 77.9781 323.512 75.8326C320.009 73.6653 317.305 70.6441 315.401 66.7691C313.518 62.8722 312.577 58.3404 312.577 53.1738C312.577 48.0071 313.518 43.4534 315.401 39.5128C317.305 35.5502 319.954 32.4633 323.348 30.2522C326.763 28.0191 330.747 26.9026 335.301 26.9026C337.928 26.9026 340.523 27.3405 343.084 28.2162C345.645 29.0919 347.977 30.5149 350.079 32.4852C352.18 34.4337 353.855 37.017 355.103 40.2352C356.351 43.4534 356.975 47.416 356.975 52.1229V55.4068H318.094V48.7077H349.094C349.094 45.8616 348.524 43.3221 347.386 41.089C346.269 38.856 344.671 37.0936 342.591 35.802C340.534 34.5103 338.103 33.8645 335.301 33.8645C332.214 33.8645 329.543 34.6307 327.288 36.1632C325.055 37.6738 323.337 39.6441 322.133 42.0742C320.929 44.5043 320.327 47.1095 320.327 49.8899V54.356C320.327 58.1653 320.983 61.3944 322.297 64.0435C323.632 66.6706 325.482 68.6737 327.847 70.053C330.211 71.4103 332.959 72.089 336.089 72.089C338.125 72.089 339.964 71.8044 341.606 71.2352C343.27 70.6441 344.704 69.7684 345.908 68.6081C347.112 67.4259 348.043 65.9591 348.699 64.2076L356.187 66.3093C355.399 68.8489 354.074 71.0819 352.213 73.0085C350.352 74.9131 348.054 76.4018 345.317 77.4746C342.58 78.5254 339.505 79.0508 336.089 79.0508ZM371.89 47.6568V78H364.14V27.5594H371.628V35.4407H372.284C373.467 32.8793 375.262 30.8214 377.67 29.267C380.078 27.6907 383.187 26.9026 386.996 26.9026C390.411 26.9026 393.4 27.6032 395.961 29.0043C398.523 30.3835 400.515 32.4852 401.938 35.3094C403.361 38.1116 404.072 41.6582 404.072 45.9492V78H396.322V46.4746C396.322 42.5121 395.294 39.4252 393.236 37.214C391.178 34.981 388.354 33.8645 384.763 33.8645C382.289 33.8645 380.078 34.4008 378.13 35.4736C376.203 36.5463 374.682 38.1116 373.565 40.1695C372.449 42.2274 371.89 44.7232 371.89 47.6568ZM413.611 78V27.5594H421.361V78H413.611ZM417.551 19.1526C416.041 19.1526 414.738 18.6381 413.643 17.6092C412.571 16.5802 412.034 15.3433 412.034 13.8984C412.034 12.4535 412.571 11.2165 413.643 10.1876C414.738 9.15864 416.041 8.64416 417.551 8.64416C419.062 8.64416 420.353 9.15864 421.426 10.1876C422.521 11.2165 423.068 12.4535 423.068 13.8984C423.068 15.3433 422.521 16.5802 421.426 17.6092C420.353 18.6381 419.062 19.1526 417.551 19.1526ZM144.538 184.915C143.225 184.915 142.053 184.806 141.024 184.587C139.995 184.39 139.284 184.193 138.89 183.996L140.86 177.165C142.743 177.647 144.407 177.822 145.852 177.691C147.297 177.559 148.577 176.913 149.694 175.753C150.832 174.615 151.872 172.765 152.814 170.203L154.258 166.263L135.606 115.559H144.013L157.936 155.754H158.462L172.386 115.559H180.792L159.381 173.356C158.418 175.961 157.225 178.118 155.802 179.825C154.379 181.555 152.726 182.835 150.843 183.667C148.982 184.499 146.881 184.915 144.538 184.915ZM199.706 167.182C196.51 167.182 193.609 166.58 191.004 165.376C188.398 164.15 186.33 162.388 184.797 160.089C183.265 157.768 182.498 154.966 182.498 151.682C182.498 148.792 183.068 146.45 184.206 144.655C185.344 142.838 186.866 141.415 188.771 140.386C190.675 139.357 192.777 138.59 195.076 138.087C197.396 137.561 199.728 137.146 202.07 136.839C205.135 136.445 207.62 136.149 209.525 135.952C211.451 135.733 212.852 135.372 213.728 134.869C214.626 134.365 215.075 133.489 215.075 132.242V131.979C215.075 128.739 214.188 126.221 212.415 124.426C210.663 122.631 208.003 121.733 204.435 121.733C200.735 121.733 197.834 122.543 195.732 124.163C193.631 125.783 192.153 127.513 191.299 129.352L183.943 126.725C185.257 123.66 187.008 121.273 189.197 119.566C191.409 117.836 193.817 116.632 196.422 115.953C199.049 115.253 201.632 114.903 204.172 114.903C205.792 114.903 207.653 115.1 209.755 115.494C211.878 115.866 213.925 116.643 215.895 117.825C217.888 119.007 219.541 120.792 220.854 123.178C222.168 125.564 222.825 128.761 222.825 132.767V166H215.075V159.17H214.68C214.155 160.264 213.279 161.435 212.053 162.683C210.827 163.931 209.196 164.993 207.16 165.869C205.124 166.744 202.64 167.182 199.706 167.182ZM200.888 160.22C203.953 160.22 206.536 159.618 208.638 158.414C210.762 157.21 212.36 155.656 213.433 153.751C214.527 151.846 215.075 149.843 215.075 147.742V140.648C214.746 141.042 214.024 141.404 212.907 141.732C211.813 142.039 210.543 142.312 209.098 142.553C207.675 142.772 206.285 142.969 204.927 143.144C203.592 143.297 202.508 143.429 201.676 143.538C199.662 143.801 197.779 144.228 196.028 144.819C194.298 145.388 192.897 146.253 191.825 147.413C190.774 148.552 190.248 150.106 190.248 152.076C190.248 154.769 191.244 156.805 193.237 158.184C195.251 159.542 197.801 160.22 200.888 160.22ZM254.782 98.7459H264.502L287.358 154.572H288.146L311.002 98.7459H320.722V166H313.104V114.903H312.447L291.43 166H284.074L263.057 114.903H262.4V166H254.782V98.7459ZM331.377 166V115.559H339.127V166H331.377ZM335.318 107.153C333.807 107.153 332.504 106.638 331.41 105.609C330.337 104.58 329.801 103.343 329.801 101.898C329.801 100.453 330.337 99.2165 331.41 98.1876C332.504 97.1586 333.807 96.6442 335.318 96.6442C336.828 96.6442 338.12 97.1586 339.193 98.1876C340.287 99.2165 340.835 100.453 340.835 101.898C340.835 103.343 340.287 104.58 339.193 105.609C338.12 106.638 336.828 107.153 335.318 107.153ZM356.448 135.657V166H348.698V115.559H356.185V123.441H356.842C358.024 120.879 359.819 118.821 362.227 117.267C364.636 115.691 367.744 114.903 371.554 114.903C374.969 114.903 377.957 115.603 380.519 117.004C383.08 118.384 385.072 120.485 386.495 123.309C387.918 126.112 388.63 129.658 388.63 133.949V166H380.88V134.475C380.88 130.512 379.851 127.425 377.793 125.214C375.735 122.981 372.911 121.864 369.321 121.864C366.847 121.864 364.636 122.401 362.687 123.474C360.761 124.546 359.239 126.112 358.123 128.17C357.006 130.227 356.448 132.723 356.448 135.657ZM413.011 167.182C409.815 167.182 406.914 166.58 404.309 165.376C401.704 164.15 399.635 162.388 398.102 160.089C396.57 157.768 395.804 154.966 395.804 151.682C395.804 148.792 396.373 146.45 397.511 144.655C398.65 142.838 400.171 141.415 402.076 140.386C403.981 139.357 406.082 138.59 408.381 138.087C410.702 137.561 413.033 137.146 415.376 136.839C418.441 136.445 420.925 136.149 422.83 135.952C424.757 135.733 426.158 135.372 427.033 134.869C427.931 134.365 428.38 133.489 428.38 132.242V131.979C428.38 128.739 427.493 126.221 425.72 124.426C423.968 122.631 421.309 121.733 417.74 121.733C414.04 121.733 411.139 122.543 409.038 124.163C406.936 125.783 405.458 127.513 404.604 129.352L397.249 126.725C398.562 123.66 400.313 121.273 402.503 119.566C404.714 117.836 407.122 116.632 409.727 115.953C412.354 115.253 414.938 114.903 417.477 114.903C419.097 114.903 420.958 115.1 423.06 115.494C425.184 115.866 427.23 116.643 429.201 117.825C431.193 119.007 432.846 120.792 434.159 123.178C435.473 125.564 436.13 128.761 436.13 132.767V166H428.38V159.17H427.986C427.46 160.264 426.585 161.435 425.359 162.683C424.133 163.931 422.502 164.993 420.466 165.869C418.43 166.744 415.945 167.182 413.011 167.182ZM414.193 160.22C417.258 160.22 419.842 159.618 421.943 158.414C424.067 157.21 425.665 155.656 426.738 153.751C427.833 151.846 428.38 149.843 428.38 147.742V140.648C428.051 141.042 427.329 141.404 426.212 141.732C425.118 142.039 423.848 142.312 422.403 142.553C420.98 142.772 419.59 142.969 418.233 143.144C416.897 143.297 415.813 143.429 414.982 143.538C412.967 143.801 411.085 144.228 409.333 144.819C407.604 145.388 406.203 146.253 405.13 147.413C404.079 148.552 403.554 150.106 403.554 152.076C403.554 154.769 404.55 156.805 406.542 158.184C408.556 159.542 411.107 160.22 414.193 160.22Z" fill="white"/>
<path d="M68.0521 63.0538C69.5418 63.1893 70.3544 63.5955 70.4898 64.2727C70.6252 64.8144 69.9481 65.0175 68.4584 64.8821C61.1453 64.2049 54.1708 65.0175 47.5349 67.3198C40.899 69.4866 35.0079 72.466 29.8617 76.258C24.8509 80.0499 20.8558 84.045 17.8764 88.2433C15.0324 92.4415 13.6104 96.098 13.6104 99.2129C13.6104 105.307 15.9804 109.844 20.7203 112.823C25.4603 115.803 31.5545 117.292 39.003 117.292C45.5035 117.292 52.4103 116.209 59.7233 114.042C67.0364 111.74 74.214 108.828 81.2562 105.307C88.2984 101.651 94.6635 97.8586 100.351 93.9312C106.039 89.8684 110.576 86.0764 113.962 82.5553C117.348 79.0342 119.04 76.1902 119.04 74.0234C119.04 72.3983 118.363 71.3826 117.009 70.9763C115.79 70.4346 114.368 70.1637 112.743 70.1637C108.274 70.1637 102.857 71.7212 96.4918 74.836C90.1267 77.9508 83.2876 82.2168 75.9746 87.6338C68.797 92.9155 61.687 98.8066 54.6448 105.307C47.738 111.808 41.373 118.511 35.5496 125.418C29.8617 132.189 25.2571 138.69 21.736 144.919C18.3504 151.149 16.6575 156.566 16.6575 161.171C16.6575 166.317 18.2149 170.041 21.3298 172.343C24.58 174.646 28.372 175.797 32.7056 175.797C36.9039 175.797 41.1698 174.646 45.5035 172.343C49.9726 170.041 54.3063 167.062 58.5045 163.405C62.7027 159.749 66.427 155.821 69.6772 151.623C73.0629 147.425 75.7037 143.294 77.5997 139.232C79.6311 135.169 80.6468 131.648 80.6468 128.668C80.6468 126.095 79.902 124.402 78.4123 123.59C77.058 122.777 75.4329 122.371 73.5369 122.371C68.2552 122.371 63.0413 123.996 57.8951 127.246C52.7488 130.361 48.0766 134.559 43.8784 139.841C39.6801 144.987 36.2945 150.675 33.7213 156.905C31.2837 162.999 30.0648 169.093 30.0648 175.187C30.0648 177.49 30.4711 180.131 31.2837 183.11C32.0962 186.089 32.9088 188.662 33.7213 190.829C34.5339 193.132 34.9402 194.554 34.9402 195.095C35.0756 196.043 34.9402 196.788 34.5339 197.33C34.1276 197.871 33.5182 197.668 32.7056 196.72C31.8931 195.908 30.8774 193.606 29.6585 189.814C28.4397 186.022 27.8303 181.282 27.8303 175.594C27.8303 168.822 29.0491 162.186 31.4868 155.686C34.0599 149.185 37.5133 143.294 41.847 138.013C46.1806 132.596 51.1914 128.33 56.8794 125.215C62.5673 121.965 68.6615 120.339 75.162 120.339C78.5477 120.339 81.5271 121.287 84.1002 123.183C86.6733 124.944 87.9599 127.585 87.9599 131.106C87.9599 135.304 86.5379 140.044 83.6939 145.326C80.9854 150.607 77.058 155.754 71.9118 160.764C66.901 165.64 60.9422 169.703 54.0354 172.953C47.264 176.068 39.8833 177.625 31.8931 177.625C24.8509 177.625 19.6369 175.661 16.2512 171.734C13.001 167.671 11.3759 163.27 11.3759 158.53C11.3759 152.029 12.8656 145.326 15.845 138.419C18.9598 131.512 23.158 124.673 28.4397 117.902C33.7213 111.13 39.7478 104.765 46.5192 98.8066C53.2906 92.8478 60.4682 87.6338 68.0521 83.1647C75.7714 78.5602 83.4908 74.9714 91.2101 72.3983C98.9295 69.6897 106.31 68.3355 113.352 68.3355C114.978 68.3355 116.67 68.674 118.431 69.3512C120.192 70.0283 121.072 71.3149 121.072 73.2109C121.072 77.0028 119.311 80.9979 115.79 85.1961C112.404 89.3944 107.732 93.5249 101.773 97.5877C95.9501 101.515 89.4496 105.104 82.2719 108.354C75.0943 111.604 67.7135 114.245 60.1296 116.277C52.6811 118.173 45.5712 119.121 38.7999 119.121C29.9971 119.121 23.0226 117.496 17.8764 114.245C12.8656 110.86 10.3602 105.172 10.3602 97.1814C10.3602 92.9832 12.053 88.785 15.4387 84.5867C18.8244 80.2531 23.2935 76.3934 28.846 73.0077C34.5339 69.622 40.7635 66.9812 47.5349 65.0852C54.4417 63.1893 61.2808 62.5121 68.0521 63.0538ZM116.285 124.605C117.64 124.741 119.468 124.944 121.77 125.215C124.208 125.35 126.51 125.215 128.677 124.809C126.51 127.111 123.734 130.023 120.348 133.544C116.962 136.929 113.306 140.518 109.379 144.31C105.587 148.102 101.998 151.826 98.6121 155.483C95.3618 159.139 92.6533 162.39 90.4864 165.234C88.3196 168.078 87.2362 170.244 87.2362 171.734C87.2362 173.088 87.6425 174.104 88.455 174.781C89.2676 175.458 90.6896 175.797 92.721 175.797C94.8878 175.797 97.8672 174.984 101.659 173.359C105.587 171.734 109.785 169.567 114.254 166.859C118.723 164.15 123.057 161.103 127.255 157.717C131.453 154.196 134.974 150.607 137.818 146.951C140.798 143.159 142.558 139.435 143.1 135.778C143.506 133.34 143.709 130.835 143.709 128.262C143.709 126.772 144.319 125.418 145.538 124.199C146.892 122.845 148.246 122.168 149.6 122.168C152.58 122.168 154.069 123.928 154.069 127.449C154.069 130.564 152.512 134.288 149.397 138.622C146.418 142.956 142.423 147.425 137.412 152.029C132.537 156.499 127.187 160.697 121.364 164.624C115.676 168.552 110.056 171.734 104.503 174.172C99.0861 176.609 94.3461 177.828 90.2833 177.828C87.8456 177.828 85.8819 177.219 84.3922 176C82.7671 174.781 81.9545 173.021 81.9545 170.718C81.9545 168.145 83.038 165.03 85.2048 161.374C87.3716 157.717 90.1479 153.858 93.5335 149.795C96.7838 145.732 100.034 141.872 103.284 138.216C106.67 134.559 109.582 131.512 112.019 129.075C114.457 126.637 115.879 125.147 116.285 124.605ZM136.193 150.404L137.818 151.623C136.464 152.842 135.313 154.129 134.365 155.483C133.552 156.702 133.146 158.056 133.146 159.546C133.146 161.712 134.433 162.796 137.006 162.796C139.443 162.796 142.016 161.78 144.725 159.749C147.569 157.717 150.345 155.347 153.054 152.639C155.762 149.93 158.065 147.696 159.961 145.935L161.586 147.154C159.69 149.185 157.32 151.623 154.476 154.467C151.767 157.176 148.856 159.546 145.741 161.577C142.626 163.608 139.714 164.624 137.006 164.624C133.078 164.624 131.115 162.999 131.115 159.749C131.115 157.853 131.453 156.363 132.13 155.28C132.807 154.061 134.162 152.436 136.193 150.404Z" fill="#FFA202"/>
</svg>
