<svg width="499" height="325" viewBox="0 0 499 325" fill="none" xmlns="http://www.w3.org/2000/svg">
<path d="M9.00685 319.41H3.25648V300.776H9.26162C11.0692 300.776 12.616 301.149 13.902 301.895C15.1879 302.635 16.1736 303.7 16.859 305.089C17.5445 306.472 17.8872 308.128 17.8872 310.057C17.8872 311.998 17.5414 313.669 16.8499 315.07C16.1584 316.465 15.1515 317.539 13.8292 318.291C12.5068 319.037 10.8994 319.41 9.00685 319.41ZM5.51295 317.409H8.86127C10.402 317.409 11.6788 317.111 12.6918 316.517C13.7048 315.922 14.46 315.076 14.9574 313.978C15.4548 312.88 15.7035 311.573 15.7035 310.057C15.7035 308.553 15.4578 307.257 14.9665 306.172C14.4752 305.08 13.7412 304.243 12.7646 303.66C11.788 303.072 10.5718 302.778 9.11604 302.778H5.51295V317.409ZM25.9595 319.701C24.6129 319.701 23.4513 319.404 22.4747 318.81C21.5042 318.209 20.7551 317.372 20.2274 316.299C19.7057 315.219 19.4449 313.963 19.4449 312.532C19.4449 311.1 19.7057 309.838 20.2274 308.747C20.7551 307.649 21.4891 306.793 22.4292 306.181C23.3755 305.562 24.4795 305.253 25.7412 305.253C26.4691 305.253 27.1879 305.374 27.8976 305.617C28.6073 305.859 29.2533 306.254 29.8356 306.799C30.4179 307.339 30.8819 308.055 31.2277 308.947C31.5734 309.838 31.7463 310.936 31.7463 312.241V313.15H20.9735V311.294H29.5626C29.5626 310.506 29.4049 309.802 29.0895 309.183C28.7801 308.565 28.3373 308.076 27.7611 307.718C27.1909 307.361 26.5176 307.182 25.7412 307.182C24.8859 307.182 24.1459 307.394 23.5211 307.819C22.9024 308.237 22.4262 308.783 22.0926 309.456C21.759 310.13 21.5922 310.851 21.5922 311.622V312.859C21.5922 313.915 21.7741 314.809 22.1381 315.543C22.5081 316.271 23.0207 316.826 23.6758 317.208C24.3309 317.584 25.0921 317.773 25.9595 317.773C26.5237 317.773 27.0332 317.694 27.4881 317.536C27.9491 317.372 28.3464 317.13 28.6801 316.808C29.0137 316.48 29.2715 316.074 29.4534 315.589L31.5279 316.171C31.3096 316.875 30.9426 317.493 30.427 318.027C29.9114 318.555 29.2745 318.967 28.5163 319.265C27.7581 319.556 26.9058 319.701 25.9595 319.701ZM43.631 308.565L41.7021 309.111C41.5808 308.789 41.4019 308.477 41.1653 308.173C40.9348 307.864 40.6194 307.609 40.219 307.409C39.8187 307.209 39.3061 307.109 38.6813 307.109C37.8261 307.109 37.1133 307.306 36.5431 307.7C35.979 308.088 35.697 308.583 35.697 309.183C35.697 309.717 35.8911 310.139 36.2793 310.448C36.6675 310.757 37.2741 311.015 38.099 311.221L40.1735 311.731C41.4231 312.034 42.3542 312.498 42.9668 313.123C43.5795 313.742 43.8858 314.539 43.8858 315.516C43.8858 316.317 43.6553 317.032 43.1943 317.663C42.7394 318.294 42.1024 318.792 41.2836 319.156C40.4647 319.519 39.5124 319.701 38.4266 319.701C37.0011 319.701 35.8213 319.392 34.8872 318.773C33.9531 318.155 33.3616 317.251 33.1129 316.062L35.151 315.552C35.3452 316.305 35.7121 316.869 36.252 317.245C36.7979 317.621 37.5106 317.809 38.3902 317.809C39.391 317.809 40.1857 317.597 40.774 317.172C41.3685 316.741 41.6657 316.226 41.6657 315.625C41.6657 315.14 41.4959 314.734 41.1562 314.406C40.8165 314.072 40.2948 313.824 39.5912 313.66L37.2619 313.114C35.9821 312.811 35.0419 312.341 34.4413 311.704C33.8469 311.061 33.5497 310.257 33.5497 309.293C33.5497 308.504 33.7711 307.806 34.2139 307.2C34.6627 306.593 35.2724 306.117 36.0427 305.771C36.8191 305.426 37.6987 305.253 38.6813 305.253C40.0643 305.253 41.1501 305.556 41.9387 306.163C42.7333 306.769 43.2974 307.57 43.631 308.565ZM45.837 319.41V305.435H47.9843V319.41H45.837ZM46.9289 303.105C46.5103 303.105 46.1494 302.963 45.8461 302.678C45.5489 302.393 45.4003 302.05 45.4003 301.65C45.4003 301.249 45.5489 300.907 45.8461 300.621C46.1494 300.336 46.5103 300.194 46.9289 300.194C47.3474 300.194 47.7053 300.336 48.0025 300.621C48.3058 300.907 48.4574 301.249 48.4574 301.65C48.4574 302.05 48.3058 302.393 48.0025 302.678C47.7053 302.963 47.3474 303.105 46.9289 303.105ZM56.2773 324.942C55.2401 324.942 54.3484 324.809 53.6023 324.542C52.8562 324.281 52.2345 323.935 51.7371 323.505C51.2457 323.08 50.8545 322.625 50.5633 322.14L52.2739 320.939C52.468 321.194 52.7137 321.485 53.0109 321.812C53.3081 322.146 53.7145 322.434 54.2301 322.677C54.7518 322.925 55.4342 323.05 56.2773 323.05C57.4055 323.05 58.3366 322.777 59.0706 322.231C59.8046 321.685 60.1716 320.83 60.1716 319.665V316.826H59.9896C59.8319 317.081 59.6074 317.396 59.3163 317.773C59.0312 318.143 58.6187 318.473 58.0789 318.764C57.5451 319.049 56.8232 319.192 55.9134 319.192C54.7851 319.192 53.7721 318.925 52.8744 318.391C51.9827 317.857 51.2761 317.081 50.7544 316.062C50.2388 315.043 49.981 313.805 49.981 312.35C49.981 310.918 50.2327 309.672 50.7362 308.61C51.2397 307.543 51.9403 306.718 52.838 306.135C53.7357 305.547 54.773 305.253 55.9498 305.253C56.8596 305.253 57.5815 305.404 58.1152 305.708C58.6551 306.005 59.0676 306.345 59.3527 306.727C59.6438 307.103 59.8683 307.412 60.026 307.655H60.2443V305.435H62.3188V319.811C62.3188 321.012 62.0459 321.988 61.5 322.74C60.9601 323.499 60.2322 324.054 59.3163 324.405C58.4064 324.763 57.3934 324.942 56.2773 324.942ZM56.2045 317.263C57.0659 317.263 57.7938 317.066 58.3882 316.672C58.9827 316.277 59.4346 315.71 59.7439 314.97C60.0533 314.23 60.2079 313.344 60.2079 312.313C60.2079 311.306 60.0563 310.418 59.753 309.647C59.4497 308.877 59.0009 308.273 58.4064 307.837C57.812 307.4 57.078 307.182 56.2045 307.182C55.2946 307.182 54.5364 307.412 53.9298 307.873C53.3293 308.334 52.8774 308.953 52.5741 309.729C52.2769 310.506 52.1283 311.367 52.1283 312.313C52.1283 313.284 52.2799 314.142 52.5832 314.888C52.8926 315.628 53.3475 316.211 53.948 316.635C54.5546 317.054 55.3068 317.263 56.2045 317.263ZM67.1157 311.003V319.41H64.9684V305.435H67.0429V307.618H67.2249C67.5524 306.909 68.0498 306.338 68.717 305.908C69.3843 305.471 70.2456 305.253 71.3011 305.253C72.2473 305.253 73.0753 305.447 73.785 305.835C74.4947 306.217 75.0467 306.799 75.441 307.582C75.8353 308.358 76.0324 309.341 76.0324 310.53V319.41H73.8851V310.676C73.8851 309.578 73.6 308.722 73.0298 308.11C72.4596 307.491 71.6772 307.182 70.6824 307.182C69.9969 307.182 69.3843 307.33 68.8444 307.627C68.3106 307.925 67.8891 308.358 67.5797 308.929C67.2704 309.499 67.1157 310.19 67.1157 311.003ZM84.5347 319.701C83.1881 319.701 82.0265 319.404 81.0499 318.81C80.0793 318.209 79.3302 317.372 78.8025 316.299C78.2808 315.219 78.02 313.963 78.02 312.532C78.02 311.1 78.2808 309.838 78.8025 308.747C79.3302 307.649 80.0642 306.793 81.0044 306.181C81.9506 305.562 83.0546 305.253 84.3163 305.253C85.0442 305.253 85.763 305.374 86.4727 305.617C87.1824 305.859 87.8284 306.254 88.4107 306.799C88.993 307.339 89.4571 308.055 89.8028 308.947C90.1486 309.838 90.3214 310.936 90.3214 312.241V313.15H79.5486V311.294H88.1378C88.1378 310.506 87.98 309.802 87.6646 309.183C87.3553 308.565 86.9125 308.076 86.3362 307.718C85.766 307.361 85.0927 307.182 84.3163 307.182C83.461 307.182 82.721 307.394 82.0962 307.819C81.4775 308.237 81.0013 308.783 80.6677 309.456C80.3341 310.13 80.1673 310.851 80.1673 311.622V312.859C80.1673 313.915 80.3493 314.809 80.7132 315.543C81.0832 316.271 81.5958 316.826 82.2509 317.208C82.906 317.584 83.6673 317.773 84.5347 317.773C85.0988 317.773 85.6083 317.694 86.0633 317.536C86.5243 317.372 86.9216 317.13 87.2552 316.808C87.5888 316.48 87.8466 316.074 88.0286 315.589L90.1031 316.171C89.8847 316.875 89.5177 317.493 89.0021 318.027C88.4865 318.555 87.8496 318.967 87.0914 319.265C86.3332 319.556 85.4809 319.701 84.5347 319.701ZM92.3068 319.41V305.435H94.3813V307.546H94.5269C94.7816 306.854 95.2426 306.293 95.9099 305.862C96.5771 305.432 97.3293 305.216 98.1663 305.216C98.3241 305.216 98.5212 305.219 98.7578 305.225C98.9943 305.231 99.1733 305.241 99.2946 305.253V307.436C99.2218 307.418 99.055 307.391 98.7942 307.355C98.5394 307.312 98.2695 307.291 97.9844 307.291C97.305 307.291 96.6984 307.433 96.1646 307.718C95.6369 307.997 95.2184 308.386 94.909 308.883C94.6057 309.374 94.4541 309.936 94.4541 310.566V319.41H92.3068ZM112.343 319.701C110.997 319.701 109.835 319.404 108.859 318.81C107.888 318.209 107.139 317.372 106.611 316.299C106.09 315.219 105.829 313.963 105.829 312.532C105.829 311.1 106.09 309.838 106.611 308.747C107.139 307.649 107.873 306.793 108.813 306.181C109.759 305.562 110.863 305.253 112.125 305.253C112.853 305.253 113.572 305.374 114.281 305.617C114.991 305.859 115.637 306.254 116.22 306.799C116.802 307.339 117.266 308.055 117.612 308.947C117.957 309.838 118.13 310.936 118.13 312.241V313.15H107.357V311.294H115.947C115.947 310.506 115.789 309.802 115.473 309.183C115.164 308.565 114.721 308.076 114.145 307.718C113.575 307.361 112.902 307.182 112.125 307.182C111.27 307.182 110.53 307.394 109.905 307.819C109.286 308.237 108.81 308.783 108.477 309.456C108.143 310.13 107.976 310.851 107.976 311.622V312.859C107.976 313.915 108.158 314.809 108.522 315.543C108.892 316.271 109.405 316.826 110.06 317.208C110.715 317.584 111.476 317.773 112.343 317.773C112.908 317.773 113.417 317.694 113.872 317.536C114.333 317.372 114.73 317.13 115.064 316.808C115.398 316.48 115.655 316.074 115.837 315.589L117.912 316.171C117.694 316.875 117.327 317.493 116.811 318.027C116.295 318.555 115.658 318.967 114.9 319.265C114.142 319.556 113.29 319.701 112.343 319.701ZM138.007 319.41H132.257V300.776H138.262C140.07 300.776 141.616 301.149 142.902 301.895C144.188 302.635 145.174 303.7 145.859 305.089C146.545 306.472 146.888 308.128 146.888 310.057C146.888 311.998 146.542 313.669 145.85 315.07C145.159 316.465 144.152 317.539 142.83 318.291C141.507 319.037 139.9 319.41 138.007 319.41ZM134.513 317.409H137.862C139.402 317.409 140.679 317.111 141.692 316.517C142.705 315.922 143.46 315.076 143.958 313.978C144.455 312.88 144.704 311.573 144.704 310.057C144.704 308.553 144.458 307.257 143.967 306.172C143.476 305.08 142.742 304.243 141.765 303.66C140.788 303.072 139.572 302.778 138.116 302.778H134.513V317.409ZM154.96 319.701C153.613 319.701 152.452 319.404 151.475 318.81C150.505 318.209 149.755 317.372 149.228 316.299C148.706 315.219 148.445 313.963 148.445 312.532C148.445 311.1 148.706 309.838 149.228 308.747C149.755 307.649 150.489 306.793 151.43 306.181C152.376 305.562 153.48 305.253 154.742 305.253C155.469 305.253 156.188 305.374 156.898 305.617C157.608 305.859 158.254 306.254 158.836 306.799C159.418 307.339 159.882 308.055 160.228 308.947C160.574 309.838 160.747 310.936 160.747 312.241V313.15H149.974V311.294H158.563C158.563 310.506 158.405 309.802 158.09 309.183C157.781 308.565 157.338 308.076 156.761 307.718C156.191 307.361 155.518 307.182 154.742 307.182C153.886 307.182 153.146 307.394 152.521 307.819C151.903 308.237 151.427 308.783 151.093 309.456C150.759 310.13 150.593 310.851 150.593 311.622V312.859C150.593 313.915 150.775 314.809 151.138 315.543C151.509 316.271 152.021 316.826 152.676 317.208C153.331 317.584 154.093 317.773 154.96 317.773C155.524 317.773 156.034 317.694 156.489 317.536C156.95 317.372 157.347 317.13 157.68 316.808C158.014 316.48 158.272 316.074 158.454 315.589L160.528 316.171C160.31 316.875 159.943 317.493 159.427 318.027C158.912 318.555 158.275 318.967 157.517 319.265C156.758 319.556 155.906 319.701 154.96 319.701ZM173.735 305.435L168.567 319.41H166.383L161.215 305.435H163.544L167.402 316.571H167.548L171.405 305.435H173.735ZM180.647 319.701C179.3 319.701 178.139 319.404 177.162 318.81C176.192 318.209 175.442 317.372 174.915 316.299C174.393 315.219 174.132 313.963 174.132 312.532C174.132 311.1 174.393 309.838 174.915 308.747C175.442 307.649 176.176 306.793 177.117 306.181C178.063 305.562 179.167 305.253 180.429 305.253C181.156 305.253 181.875 305.374 182.585 305.617C183.295 305.859 183.941 306.254 184.523 306.799C185.105 307.339 185.569 308.055 185.915 308.947C186.261 309.838 186.434 310.936 186.434 312.241V313.15H175.661V311.294H184.25C184.25 310.506 184.092 309.802 183.777 309.183C183.468 308.565 183.025 308.076 182.448 307.718C181.878 307.361 181.205 307.182 180.429 307.182C179.573 307.182 178.833 307.394 178.208 307.819C177.59 308.237 177.114 308.783 176.78 309.456C176.446 310.13 176.28 310.851 176.28 311.622V312.859C176.28 313.915 176.462 314.809 176.825 315.543C177.195 316.271 177.708 316.826 178.363 317.208C179.018 317.584 179.78 317.773 180.647 317.773C181.211 317.773 181.721 317.694 182.176 317.536C182.637 317.372 183.034 317.13 183.367 316.808C183.701 316.48 183.959 316.074 184.141 315.589L186.215 316.171C185.997 316.875 185.63 317.493 185.114 318.027C184.599 318.555 183.962 318.967 183.204 319.265C182.445 319.556 181.593 319.701 180.647 319.701ZM190.566 300.776V319.41H188.419V300.776H190.566ZM198.896 319.701C197.634 319.701 196.527 319.401 195.575 318.801C194.628 318.2 193.888 317.36 193.355 316.28C192.827 315.201 192.563 313.939 192.563 312.495C192.563 311.039 192.827 309.769 193.355 308.683C193.888 307.597 194.628 306.754 195.575 306.153C196.527 305.553 197.634 305.253 198.896 305.253C200.157 305.253 201.261 305.553 202.208 306.153C203.16 306.754 203.9 307.597 204.428 308.683C204.962 309.769 205.228 311.039 205.228 312.495C205.228 313.939 204.962 315.201 204.428 316.28C203.9 317.36 203.16 318.2 202.208 318.801C201.261 319.401 200.157 319.701 198.896 319.701ZM198.896 317.773C199.854 317.773 200.643 317.527 201.261 317.036C201.88 316.544 202.338 315.898 202.635 315.097C202.933 314.297 203.081 313.429 203.081 312.495C203.081 311.561 202.933 310.691 202.635 309.884C202.338 309.077 201.88 308.425 201.261 307.928C200.643 307.43 199.854 307.182 198.896 307.182C197.937 307.182 197.149 307.43 196.53 307.928C195.911 308.425 195.453 309.077 195.156 309.884C194.859 310.691 194.71 311.561 194.71 312.495C194.71 313.429 194.859 314.297 195.156 315.097C195.453 315.898 195.911 316.544 196.53 317.036C197.149 317.527 197.937 317.773 198.896 317.773ZM207.225 324.651V305.435H209.3V307.655H209.554C209.712 307.412 209.93 307.103 210.21 306.727C210.495 306.345 210.901 306.005 211.429 305.708C211.963 305.404 212.684 305.253 213.594 305.253C214.771 305.253 215.808 305.547 216.706 306.135C217.604 306.724 218.304 307.558 218.808 308.637C219.311 309.717 219.563 310.991 219.563 312.459C219.563 313.939 219.311 315.222 218.808 316.308C218.304 317.387 217.607 318.224 216.715 318.819C215.823 319.407 214.795 319.701 213.631 319.701C212.733 319.701 212.014 319.553 211.474 319.256C210.934 318.952 210.519 318.61 210.228 318.227C209.937 317.839 209.712 317.518 209.554 317.263H209.372V324.651H207.225ZM209.336 312.422C209.336 313.478 209.491 314.409 209.8 315.216C210.109 316.016 210.561 316.644 211.156 317.099C211.75 317.548 212.478 317.773 213.339 317.773C214.237 317.773 214.986 317.536 215.587 317.063C216.193 316.584 216.648 315.941 216.952 315.134C217.261 314.321 217.416 313.417 217.416 312.422C217.416 311.44 217.264 310.554 216.961 309.766C216.664 308.971 216.212 308.343 215.605 307.882C215.005 307.415 214.249 307.182 213.339 307.182C212.466 307.182 211.732 307.403 211.138 307.846C210.543 308.283 210.094 308.895 209.791 309.684C209.488 310.466 209.336 311.379 209.336 312.422ZM227.417 319.701C226.07 319.701 224.909 319.404 223.932 318.81C222.962 318.209 222.212 317.372 221.685 316.299C221.163 315.219 220.902 313.963 220.902 312.532C220.902 311.1 221.163 309.838 221.685 308.747C222.212 307.649 222.946 306.793 223.887 306.181C224.833 305.562 225.937 305.253 227.199 305.253C227.926 305.253 228.645 305.374 229.355 305.617C230.065 305.859 230.711 306.254 231.293 306.799C231.875 307.339 232.339 308.055 232.685 308.947C233.031 309.838 233.204 310.936 233.204 312.241V313.15H222.431V311.294H231.02C231.02 310.506 230.862 309.802 230.547 309.183C230.238 308.565 229.795 308.076 229.218 307.718C228.648 307.361 227.975 307.182 227.199 307.182C226.343 307.182 225.603 307.394 224.978 307.819C224.36 308.237 223.884 308.783 223.55 309.456C223.216 310.13 223.05 310.851 223.05 311.622V312.859C223.05 313.915 223.232 314.809 223.595 315.543C223.966 316.271 224.478 316.826 225.133 317.208C225.788 317.584 226.55 317.773 227.417 317.773C227.981 317.773 228.491 317.694 228.946 317.536C229.407 317.372 229.804 317.13 230.137 316.808C230.471 316.48 230.729 316.074 230.911 315.589L232.985 316.171C232.767 316.875 232.4 317.493 231.884 318.027C231.369 318.555 230.732 318.967 229.974 319.265C229.215 319.556 228.363 319.701 227.417 319.701ZM235.189 319.41V305.435H237.264V307.546H237.409C237.664 306.854 238.125 306.293 238.792 305.862C239.459 305.432 240.212 305.216 241.049 305.216C241.206 305.216 241.403 305.219 241.64 305.225C241.877 305.231 242.056 305.241 242.177 305.253V307.436C242.104 307.418 241.937 307.391 241.676 307.355C241.422 307.312 241.152 307.291 240.867 307.291C240.187 307.291 239.581 307.433 239.047 307.718C238.519 307.997 238.101 308.386 237.791 308.883C237.488 309.374 237.336 309.936 237.336 310.566V319.41H235.189Z" fill="white"/>
<path d="M9.25545 110.534H2.79034L21.4894 59.6083H27.8551L46.5542 110.534H40.0891L24.8712 67.6648H24.4733L9.25545 110.534ZM11.6426 90.6409H37.7019V96.1113H11.6426V90.6409ZM76.2489 124.856V104.665H75.7516C75.3206 105.361 74.7072 106.24 73.9115 107.301C73.1158 108.345 71.9803 109.282 70.5049 110.111C69.0295 110.923 67.0651 111.329 64.6117 111.329C61.4289 111.329 58.6191 110.525 56.1822 108.917C53.7454 107.293 51.839 105.005 50.4631 102.054C49.0872 99.0869 48.3992 95.5809 48.3992 91.536C48.3992 87.5243 49.0872 84.0431 50.4631 81.0924C51.839 78.1416 53.7537 75.8623 56.2071 74.2543C58.6605 72.6463 61.4952 71.8423 64.7112 71.8423C67.1978 71.8423 69.1622 72.2567 70.6044 73.0856C72.0632 73.8979 73.1738 74.8262 73.9364 75.8706C74.7155 76.8984 75.3206 77.7438 75.7516 78.4069H76.4478V72.3396H82.1173V124.856H76.2489ZM65.4074 106.058C67.7614 106.058 69.7507 105.444 71.3752 104.218C72.9998 102.974 74.2348 101.259 75.0802 99.0704C75.9257 96.8656 76.3484 94.321 76.3484 91.4366C76.3484 88.5853 75.934 86.0904 75.1051 83.952C74.2762 81.7969 73.0495 80.1226 71.425 78.9291C69.8004 77.7189 67.7945 77.1139 65.4074 77.1139C62.9208 77.1139 60.8487 77.7521 59.191 79.0285C57.5498 80.2884 56.3148 82.0041 55.486 84.1757C54.6737 86.3308 54.2675 88.7511 54.2675 91.4366C54.2675 94.1552 54.682 96.6252 55.5108 98.8466C56.3563 101.051 57.5996 102.809 59.2407 104.118C60.8984 105.411 62.954 106.058 65.4074 106.058ZM113.428 94.9178V72.3396H119.297V110.534H113.428V104.068H113.03C112.135 106.008 110.743 107.657 108.853 109.017C106.963 110.359 104.576 111.031 101.692 111.031C99.3045 111.031 97.1826 110.509 95.326 109.464C93.4693 108.403 92.0105 106.812 90.9496 104.69C89.8886 102.552 89.3582 99.8578 89.3582 96.6087V72.3396H95.2265V96.2108C95.2265 98.9958 96.0056 101.217 97.5639 102.875C99.1387 104.533 101.145 105.361 103.581 105.361C105.04 105.361 106.524 104.988 108.032 104.242C109.558 103.496 110.834 102.353 111.862 100.811C112.906 99.2693 113.428 97.3049 113.428 94.9178ZM126.544 110.534V72.3396H132.412V110.534H126.544ZM129.528 65.974C128.384 65.974 127.397 65.5844 126.569 64.8053C125.756 64.0262 125.35 63.0895 125.35 61.9954C125.35 60.9013 125.756 59.9647 126.569 59.1856C127.397 58.4065 128.384 58.0169 129.528 58.0169C130.671 58.0169 131.65 58.4065 132.462 59.1856C133.291 59.9647 133.705 60.9013 133.705 61.9954C133.705 63.0895 133.291 64.0262 132.462 64.8053C131.65 65.5844 130.671 65.974 129.528 65.974ZM197.626 75.5224H191.46C191.095 73.7487 190.457 72.1904 189.545 70.8477C188.65 69.5049 187.556 68.3777 186.263 67.4659C184.986 66.5376 183.569 65.8414 182.011 65.3772C180.452 64.913 178.828 64.681 177.137 64.681C174.054 64.681 171.26 65.4601 168.757 67.0183C166.271 68.5766 164.29 70.8725 162.814 73.9062C161.355 76.9398 160.626 80.6614 160.626 85.0709C160.626 89.4805 161.355 93.202 162.814 96.2357C164.29 99.2693 166.271 101.565 168.757 103.123C171.26 104.682 174.054 105.461 177.137 105.461C178.828 105.461 180.452 105.229 182.011 104.765C183.569 104.3 184.986 103.613 186.263 102.701C187.556 101.772 188.65 100.637 189.545 99.2942C190.457 97.9348 191.095 96.3766 191.46 94.6194H197.626C197.162 97.222 196.317 99.5511 195.09 101.607C193.863 103.662 192.338 105.411 190.515 106.853C188.691 108.279 186.644 109.365 184.373 110.111C182.118 110.857 179.706 111.23 177.137 111.23C172.794 111.23 168.931 110.169 165.55 108.047C162.168 105.925 159.507 102.908 157.568 98.9958C155.628 95.0836 154.658 90.4419 154.658 85.0709C154.658 79.6999 155.628 75.0583 157.568 71.1461C159.507 67.2338 162.168 64.2168 165.55 62.0949C168.931 59.973 172.794 58.9121 177.137 58.9121C179.706 58.9121 182.118 59.2851 184.373 60.031C186.644 60.777 188.691 61.8711 190.515 63.3133C192.338 64.739 193.863 66.4796 195.09 68.5352C196.317 70.5741 197.162 72.9032 197.626 75.5224ZM218.811 111.329C215.363 111.329 212.337 110.509 209.735 108.867C207.149 107.226 205.126 104.93 203.668 101.98C202.225 99.0289 201.504 95.5809 201.504 91.6355C201.504 87.657 202.225 84.184 203.668 81.2167C205.126 78.2494 207.149 75.9452 209.735 74.304C212.337 72.6629 215.363 71.8423 218.811 71.8423C222.259 71.8423 225.276 72.6629 227.862 74.304C230.465 75.9452 232.487 78.2494 233.929 81.2167C235.388 84.184 236.117 87.657 236.117 91.6355C236.117 95.5809 235.388 99.0289 233.929 101.98C232.487 104.93 230.465 107.226 227.862 108.867C225.276 110.509 222.259 111.329 218.811 111.329ZM218.811 106.058C221.43 106.058 223.585 105.386 225.276 104.044C226.967 102.701 228.218 100.935 229.031 98.7471C229.843 96.5589 230.249 94.1884 230.249 91.6355C230.249 89.0826 229.843 86.7038 229.031 84.499C228.218 82.2942 226.967 80.5122 225.276 79.1529C223.585 77.7935 221.43 77.1139 218.811 77.1139C216.192 77.1139 214.037 77.7935 212.346 79.1529C210.655 80.5122 209.403 82.2942 208.591 84.499C207.779 86.7038 207.373 89.0826 207.373 91.6355C207.373 94.1884 207.779 96.5589 208.591 98.7471C209.403 100.935 210.655 102.701 212.346 104.044C214.037 105.386 216.192 106.058 218.811 106.058ZM241.574 110.534V72.3396H247.244V78.3074H247.741C248.537 76.2684 249.821 74.6853 251.595 73.558C253.369 72.4142 255.499 71.8423 257.986 71.8423C260.505 71.8423 262.602 72.4142 264.277 73.558C265.968 74.6853 267.285 76.2684 268.23 78.3074H268.628C269.606 76.3347 271.073 74.7682 273.029 73.6078C274.986 72.4308 277.331 71.8423 280.067 71.8423C283.481 71.8423 286.275 72.9115 288.446 75.05C290.618 77.1719 291.704 80.479 291.704 84.9715V110.534H285.835V84.9715C285.835 82.1533 285.065 80.1392 283.523 78.9291C281.981 77.7189 280.166 77.1139 278.077 77.1139C275.392 77.1139 273.311 77.9261 271.836 79.5507C270.361 81.1587 269.623 83.1977 269.623 85.6677V110.534H263.655V84.3747C263.655 82.2031 262.951 80.4542 261.541 79.128C260.132 77.7852 258.317 77.1139 256.096 77.1139C254.571 77.1139 253.145 77.52 251.819 78.3323C250.509 79.1446 249.448 80.2718 248.636 81.714C247.84 83.1397 247.443 84.7891 247.443 86.6623V110.534H241.574ZM314.946 111.329C311.266 111.329 308.091 110.517 305.422 108.892C302.77 107.251 300.723 104.964 299.28 102.029C297.855 99.0787 297.142 95.6472 297.142 91.735C297.142 87.8227 297.855 84.3747 299.28 81.3908C300.723 78.3903 302.728 76.0529 305.298 74.3786C307.884 72.6877 310.901 71.8423 314.349 71.8423C316.338 71.8423 318.303 72.1738 320.242 72.8369C322.182 73.5 323.947 74.5775 325.539 76.0695C327.13 77.5449 328.398 79.501 329.343 81.9378C330.288 84.3747 330.76 87.3751 330.76 90.9392V93.4258H301.319V88.3532H324.793C324.793 86.1982 324.362 84.2752 323.5 82.5843C322.654 80.8935 321.444 79.559 319.869 78.5809C318.311 77.6029 316.471 77.1139 314.349 77.1139C312.012 77.1139 309.989 77.6941 308.282 78.8545C306.591 79.9983 305.29 81.4902 304.378 83.3303C303.466 85.1704 303.01 87.1431 303.01 89.2484V92.6301C303.01 95.5146 303.508 97.9597 304.502 99.9655C305.513 101.955 306.914 103.472 308.704 104.516C310.495 105.544 312.575 106.058 314.946 106.058C316.487 106.058 317.88 105.842 319.123 105.411C320.383 104.964 321.469 104.3 322.381 103.422C323.292 102.527 323.997 101.416 324.494 100.09L330.164 101.681C329.567 103.604 328.564 105.295 327.155 106.754C325.746 108.196 324.005 109.323 321.933 110.136C319.861 110.931 317.532 111.329 314.946 111.329ZM351.702 111.329C348.122 111.329 345.038 110.484 342.452 108.793C339.866 107.102 337.877 104.773 336.485 101.806C335.092 98.8383 334.396 95.4482 334.396 91.6355C334.396 87.7564 335.109 84.3332 336.534 81.3659C337.977 78.382 339.982 76.0529 342.552 74.3786C345.138 72.6877 348.155 71.8423 351.603 71.8423C354.288 71.8423 356.709 72.3396 358.864 73.3343C361.019 74.3289 362.784 75.7214 364.16 77.5117C365.536 79.302 366.39 81.3908 366.721 83.7779H360.853C360.405 82.0373 359.411 80.4956 357.869 79.1529C356.344 77.7935 354.288 77.1139 351.702 77.1139C349.415 77.1139 347.409 77.7106 345.685 78.9042C343.977 80.0812 342.643 81.7472 341.682 83.9022C340.737 86.0407 340.264 88.5521 340.264 91.4366C340.264 94.3873 340.728 96.9568 341.657 99.145C342.602 101.333 343.928 103.032 345.635 104.242C347.359 105.453 349.382 106.058 351.702 106.058C353.228 106.058 354.612 105.792 355.855 105.262C357.098 104.731 358.151 103.969 359.013 102.974C359.875 101.98 360.488 100.786 360.853 99.3936H366.721C366.39 101.648 365.569 103.679 364.26 105.486C362.967 107.276 361.251 108.702 359.112 109.763C356.991 110.807 354.521 111.329 351.702 111.329ZM348.917 110.335H353.791L353.393 112.324C354.686 112.523 355.872 113.062 356.949 113.94C358.027 114.835 358.565 116.253 358.565 118.192C358.565 120.331 357.679 122.071 355.905 123.414C354.148 124.773 351.553 125.453 348.122 125.453L347.923 121.574C349.465 121.574 350.741 121.325 351.752 120.828C352.78 120.347 353.294 119.535 353.294 118.391C353.294 117.247 352.871 116.468 352.026 116.054C351.18 115.639 349.813 115.357 347.923 115.208L348.917 110.335ZM383.038 111.429C380.618 111.429 378.422 110.973 376.449 110.061C374.476 109.133 372.91 107.798 371.749 106.058C370.589 104.3 370.009 102.179 370.009 99.692C370.009 97.5038 370.44 95.7301 371.302 94.3707C372.164 92.9948 373.316 91.9173 374.758 91.1382C376.2 90.359 377.792 89.7788 379.532 89.3976C381.289 88.9997 383.055 88.6847 384.829 88.4527C387.149 88.1543 389.031 87.9305 390.473 87.7813C391.932 87.6155 392.993 87.342 393.656 86.9607C394.336 86.5794 394.676 85.9164 394.676 84.9715V84.7725C394.676 82.3191 394.004 80.4127 392.661 79.0534C391.335 77.6941 389.321 77.0144 386.619 77.0144C383.817 77.0144 381.621 77.6278 380.03 78.8545C378.438 80.0812 377.319 81.3908 376.673 82.7833L371.103 80.794C372.097 78.4732 373.424 76.6663 375.081 75.3733C376.756 74.0637 378.579 73.1519 380.552 72.638C382.541 72.1075 384.497 71.8423 386.42 71.8423C387.647 71.8423 389.056 71.9915 390.647 72.2899C392.255 72.5717 393.805 73.1602 395.297 74.0554C396.806 74.9505 398.057 76.3016 399.052 78.1085C400.047 79.9154 400.544 82.3357 400.544 85.3693V110.534H394.676V105.361H394.377C393.979 106.19 393.316 107.077 392.388 108.022C391.46 108.967 390.225 109.771 388.683 110.434C387.141 111.097 385.26 111.429 383.038 111.429ZM383.934 106.157C386.254 106.157 388.21 105.701 389.802 104.79C391.41 103.878 392.62 102.701 393.432 101.259C394.261 99.8163 394.676 98.2995 394.676 96.7081V91.3371C394.427 91.6355 393.88 91.909 393.034 92.1577C392.206 92.3898 391.244 92.597 390.15 92.7793C389.072 92.9451 388.02 93.0943 386.992 93.2269C385.981 93.3429 385.16 93.4424 384.53 93.5253C383.005 93.7242 381.58 94.0475 380.253 94.4951C378.944 94.9261 377.883 95.5809 377.071 96.4595C376.275 97.3215 375.877 98.4985 375.877 99.9904C375.877 102.029 376.631 103.571 378.14 104.615C379.665 105.643 381.596 106.157 383.934 106.157ZM17.6104 181.429C15.1901 181.429 12.9936 180.973 11.0209 180.061C9.04823 179.133 7.48169 177.798 6.32128 176.058C5.16088 174.3 4.58068 172.179 4.58068 169.692C4.58068 167.504 5.01168 165.73 5.8737 164.371C6.73571 162.995 7.88783 161.917 9.33005 161.138C10.7723 160.359 12.3637 159.779 14.1043 159.398C15.8615 159 17.6269 158.685 19.4007 158.453C21.7215 158.154 23.603 157.93 25.0452 157.781C26.504 157.616 27.565 157.342 28.2281 156.961C28.9077 156.579 29.2476 155.916 29.2476 154.971V154.773C29.2476 152.319 28.5762 150.413 27.2334 149.053C25.9073 147.694 23.8931 147.014 21.191 147.014C18.3895 147.014 16.193 147.628 14.6016 148.854C13.0102 150.081 11.8912 151.391 11.2447 152.783L5.67477 150.794C6.66941 148.473 7.99558 146.666 9.6533 145.373C11.3276 144.064 13.1511 143.152 15.1238 142.638C17.113 142.108 19.0692 141.842 20.9921 141.842C22.2188 141.842 23.6279 141.991 25.2193 142.29C26.8273 142.572 28.3773 143.16 29.8692 144.055C31.3777 144.951 32.6293 146.302 33.6239 148.108C34.6186 149.915 35.1159 152.336 35.1159 155.369V180.534H29.2476V175.361H28.9492C28.5513 176.19 27.8882 177.077 26.9599 178.022C26.0316 178.967 24.7966 179.771 23.2549 180.434C21.7132 181.097 19.8317 181.429 17.6104 181.429ZM18.5055 176.157C20.8263 176.157 22.7825 175.701 24.3739 174.79C25.9819 173.878 27.192 172.701 28.0043 171.259C28.8331 169.816 29.2476 168.3 29.2476 166.708V161.337C28.9989 161.635 28.4519 161.909 27.6064 162.158C26.7776 162.39 25.8161 162.597 24.722 162.779C23.6445 162.945 22.5918 163.094 21.564 163.227C20.5528 163.343 19.7322 163.442 19.1023 163.525C17.5772 163.724 16.1516 164.047 14.8254 164.495C13.5158 164.926 12.4549 165.581 11.6426 166.459C10.8469 167.321 10.449 168.498 10.449 169.99C10.449 172.029 11.2033 173.571 12.7118 174.615C14.2369 175.643 16.1681 176.157 18.5055 176.157Z" fill="white"/>
<path d="M58.1702 129.608H69.4593L84.5777 166.509H85.1745L100.293 129.608H111.582V180.534H102.73V145.547H102.257L88.1833 180.384H81.569L67.4949 145.473H67.0225V180.534H58.1702V129.608ZM117.729 180.534V142.34H126.73V180.534H117.729ZM122.254 136.919C120.829 136.919 119.602 136.446 118.574 135.502C117.546 134.54 117.033 133.388 117.033 132.045C117.033 130.686 117.546 129.534 118.574 128.589C119.602 127.627 120.829 127.147 122.254 127.147C123.697 127.147 124.923 127.627 125.935 128.589C126.962 129.534 127.476 130.686 127.476 132.045C127.476 133.388 126.962 134.54 125.935 135.502C124.923 136.446 123.697 136.919 122.254 136.919ZM141.487 158.154V180.534H132.485V142.34H141.089V148.83H141.537C142.415 146.691 143.816 144.992 145.739 143.732C147.678 142.472 150.074 141.842 152.925 141.842C155.561 141.842 157.857 142.406 159.813 143.533C161.786 144.66 163.311 146.293 164.388 148.432C165.482 150.57 166.021 153.165 166.005 156.215V180.534H157.003V157.607C157.003 155.054 156.34 153.057 155.014 151.615C153.704 150.172 151.889 149.451 149.568 149.451C147.993 149.451 146.593 149.799 145.366 150.496C144.156 151.175 143.203 152.162 142.506 153.455C141.827 154.748 141.487 156.314 141.487 158.154ZM180.655 158.154V180.534H171.654V129.608H180.457V148.83H180.904C181.799 146.675 183.184 144.975 185.057 143.732C186.947 142.472 189.35 141.842 192.268 141.842C194.92 141.842 197.233 142.398 199.205 143.508C201.178 144.619 202.703 146.244 203.781 148.382C204.875 150.52 205.422 153.131 205.422 156.215V180.534H196.42V157.607C196.42 155.038 195.757 153.04 194.431 151.615C193.122 150.172 191.281 149.451 188.911 149.451C187.32 149.451 185.894 149.799 184.634 150.496C183.391 151.175 182.413 152.162 181.7 153.455C181.004 154.748 180.655 156.314 180.655 158.154ZM222.087 181.304C219.667 181.304 217.487 180.873 215.547 180.011C213.624 179.133 212.099 177.84 210.972 176.132C209.861 174.425 209.306 172.32 209.306 169.816C209.306 167.661 209.704 165.879 210.499 164.47C211.295 163.061 212.381 161.934 213.757 161.088C215.133 160.243 216.683 159.605 218.407 159.174C220.147 158.726 221.946 158.403 223.803 158.204C226.041 157.972 227.856 157.765 229.248 157.582C230.641 157.383 231.652 157.085 232.282 156.687C232.928 156.273 233.252 155.635 233.252 154.773V154.623C233.252 152.75 232.696 151.3 231.586 150.272C230.475 149.244 228.875 148.73 226.787 148.73C224.582 148.73 222.833 149.211 221.54 150.172C220.263 151.134 219.401 152.269 218.954 153.579L210.549 152.385C211.212 150.065 212.306 148.125 213.831 146.567C215.357 144.992 217.221 143.815 219.426 143.036C221.631 142.24 224.068 141.842 226.737 141.842C228.577 141.842 230.409 142.058 232.232 142.489C234.056 142.92 235.722 143.633 237.23 144.627C238.739 145.605 239.949 146.94 240.861 148.631C241.789 150.322 242.253 152.435 242.253 154.971V180.534H233.6V175.287H233.301C232.754 176.348 231.983 177.342 230.989 178.271C230.011 179.182 228.776 179.92 227.284 180.484C225.808 181.031 224.076 181.304 222.087 181.304ZM224.424 174.69C226.231 174.69 227.798 174.334 229.124 173.621C230.45 172.891 231.47 171.93 232.182 170.736C232.912 169.543 233.277 168.242 233.277 166.832V162.332C232.995 162.564 232.514 162.779 231.834 162.978C231.171 163.177 230.425 163.351 229.596 163.5C228.768 163.65 227.947 163.782 227.135 163.898C226.322 164.014 225.618 164.114 225.021 164.197C223.678 164.379 222.476 164.677 221.416 165.092C220.355 165.506 219.517 166.086 218.904 166.832C218.291 167.562 217.984 168.507 217.984 169.667C217.984 171.325 218.589 172.576 219.799 173.422C221.009 174.267 222.551 174.69 224.424 174.69ZM262.069 180.534V129.608H271.294V151.167H294.892V129.608H304.142V180.534H294.892V158.9H271.294V180.534H262.069ZM310.276 180.534V142.34H319.277V180.534H310.276ZM314.802 136.919C313.376 136.919 312.149 136.446 311.121 135.502C310.094 134.54 309.58 133.388 309.58 132.045C309.58 130.686 310.094 129.534 311.121 128.589C312.149 127.627 313.376 127.147 314.802 127.147C316.244 127.147 317.47 127.627 318.482 128.589C319.509 129.534 320.023 130.686 320.023 132.045C320.023 133.388 319.509 134.54 318.482 135.502C317.47 136.446 316.244 136.919 314.802 136.919ZM355.22 152.435L347.014 153.33C346.782 152.501 346.376 151.722 345.796 150.993C345.232 150.264 344.469 149.675 343.508 149.227C342.546 148.78 341.369 148.556 339.977 148.556C338.104 148.556 336.529 148.962 335.252 149.774C333.993 150.587 333.371 151.639 333.388 152.932C333.371 154.043 333.777 154.947 334.606 155.643C335.451 156.339 336.844 156.911 338.783 157.359L345.298 158.751C348.912 159.53 351.598 160.765 353.355 162.456C355.129 164.147 356.024 166.36 356.04 169.095C356.024 171.499 355.319 173.621 353.927 175.461C352.551 177.284 350.636 178.71 348.183 179.738C345.729 180.766 342.911 181.279 339.728 181.279C335.054 181.279 331.29 180.301 328.439 178.345C325.588 176.373 323.889 173.629 323.342 170.115L332.119 169.269C332.517 170.993 333.363 172.295 334.656 173.173C335.949 174.052 337.631 174.491 339.703 174.491C341.842 174.491 343.558 174.052 344.851 173.173C346.16 172.295 346.815 171.209 346.815 169.916C346.815 168.822 346.392 167.918 345.547 167.205C344.718 166.493 343.425 165.946 341.668 165.564L335.153 164.197C331.489 163.434 328.779 162.149 327.022 160.342C325.265 158.519 324.394 156.215 324.411 153.43C324.394 151.076 325.033 149.037 326.326 147.313C327.635 145.572 329.45 144.229 331.771 143.285C334.109 142.323 336.802 141.842 339.853 141.842C344.328 141.842 347.851 142.795 350.421 144.702C353.007 146.608 354.606 149.186 355.22 152.435ZM379.034 142.34V149.302H357.077V142.34H379.034ZM362.498 133.189H371.499V169.046C371.499 170.256 371.682 171.184 372.046 171.83C372.428 172.46 372.925 172.891 373.538 173.123C374.152 173.356 374.831 173.472 375.577 173.472C376.141 173.472 376.655 173.43 377.119 173.347C377.6 173.264 377.964 173.19 378.213 173.123L379.73 180.161C379.249 180.326 378.561 180.509 377.666 180.708C376.787 180.906 375.71 181.023 374.434 181.056C372.179 181.122 370.148 180.782 368.341 180.036C366.534 179.274 365.101 178.097 364.04 176.505C362.995 174.914 362.481 172.925 362.498 170.537V133.189ZM399.311 181.279C395.581 181.279 392.348 180.459 389.613 178.818C386.878 177.177 384.756 174.881 383.247 171.93C381.755 168.979 381.009 165.531 381.009 161.586C381.009 157.64 381.755 154.184 383.247 151.217C384.756 148.249 386.878 145.945 389.613 144.304C392.348 142.663 395.581 141.842 399.311 141.842C403.04 141.842 406.273 142.663 409.008 144.304C411.743 145.945 413.857 148.249 415.349 151.217C416.858 154.184 417.612 157.64 417.612 161.586C417.612 165.531 416.858 168.979 415.349 171.93C413.857 174.881 411.743 177.177 409.008 178.818C406.273 180.459 403.04 181.279 399.311 181.279ZM399.36 174.068C401.383 174.068 403.074 173.513 404.433 172.402C405.792 171.275 406.803 169.767 407.467 167.877C408.146 165.987 408.486 163.882 408.486 161.561C408.486 159.224 408.146 157.11 407.467 155.22C406.803 153.314 405.792 151.797 404.433 150.67C403.074 149.542 401.383 148.979 399.36 148.979C397.288 148.979 395.564 149.542 394.188 150.67C392.829 151.797 391.809 153.314 391.13 155.22C390.467 157.11 390.135 159.224 390.135 161.561C390.135 163.882 390.467 165.987 391.13 167.877C391.809 169.767 392.829 171.275 394.188 172.402C395.564 173.513 397.288 174.068 399.36 174.068ZM395.854 137.317L401.424 125.953H410.227L402.593 137.317H395.854ZM421.751 180.534V142.34H430.479V148.705H430.876C431.573 146.501 432.766 144.801 434.457 143.608C436.165 142.398 438.112 141.793 440.301 141.793C440.798 141.793 441.353 141.817 441.967 141.867C442.596 141.9 443.119 141.958 443.533 142.041V150.322C443.152 150.189 442.547 150.073 441.718 149.973C440.906 149.857 440.118 149.799 439.356 149.799C437.715 149.799 436.239 150.156 434.93 150.869C433.637 151.565 432.617 152.535 431.871 153.778C431.125 155.021 430.752 156.455 430.752 158.08V180.534H421.751ZM446.012 180.534V142.34H455.014V180.534H446.012ZM450.538 136.919C449.112 136.919 447.885 136.446 446.858 135.502C445.83 134.54 445.316 133.388 445.316 132.045C445.316 130.686 445.83 129.534 446.858 128.589C447.885 127.627 449.112 127.147 450.538 127.147C451.98 127.147 453.207 127.627 454.218 128.589C455.246 129.534 455.76 130.686 455.76 132.045C455.76 133.388 455.246 134.54 454.218 135.502C453.207 136.446 451.98 136.919 450.538 136.919ZM471.76 181.304C469.339 181.304 467.159 180.873 465.22 180.011C463.297 179.133 461.772 177.84 460.645 176.132C459.534 174.425 458.979 172.32 458.979 169.816C458.979 167.661 459.376 165.879 460.172 164.47C460.968 163.061 462.054 161.934 463.429 161.088C464.805 160.243 466.355 159.605 468.079 159.174C469.82 158.726 471.619 158.403 473.475 158.204C475.713 157.972 477.528 157.765 478.921 157.582C480.313 157.383 481.325 157.085 481.955 156.687C482.601 156.273 482.924 155.635 482.924 154.773V154.623C482.924 152.75 482.369 151.3 481.258 150.272C480.148 149.244 478.548 148.73 476.459 148.73C474.254 148.73 472.506 149.211 471.212 150.172C469.936 151.134 469.074 152.269 468.626 153.579L460.222 152.385C460.885 150.065 461.979 148.125 463.504 146.567C465.029 144.992 466.894 143.815 469.099 143.036C471.304 142.24 473.741 141.842 476.409 141.842C478.25 141.842 480.081 142.058 481.905 142.489C483.728 142.92 485.394 143.633 486.903 144.627C488.411 145.605 489.621 146.94 490.533 148.631C491.462 150.322 491.926 152.435 491.926 154.971V180.534H483.272V175.287H482.974C482.427 176.348 481.656 177.342 480.661 178.271C479.683 179.182 478.448 179.92 476.956 180.484C475.481 181.031 473.749 181.304 471.76 181.304ZM474.097 174.69C475.904 174.69 477.47 174.334 478.797 173.621C480.123 172.891 481.142 171.93 481.855 170.736C482.584 169.543 482.949 168.242 482.949 166.832V162.332C482.667 162.564 482.187 162.779 481.507 162.978C480.844 163.177 480.098 163.351 479.269 163.5C478.44 163.65 477.62 163.782 476.807 163.898C475.995 164.014 475.29 164.114 474.694 164.197C473.351 164.379 472.149 164.677 471.088 165.092C470.027 165.506 469.19 166.086 468.577 166.832C467.963 167.562 467.657 168.507 467.657 169.667C467.657 171.325 468.262 172.576 469.472 173.422C470.682 174.267 472.224 174.69 474.097 174.69ZM6.02289 250.534V199.608H25.1198C29.0321 199.608 32.3143 200.338 34.9667 201.797C37.6356 203.255 39.6498 205.261 41.0091 207.814C42.385 210.35 43.073 213.235 43.073 216.467C43.073 219.733 42.385 222.634 41.0091 225.17C39.6332 227.707 37.6025 229.704 34.917 231.163C32.2315 232.605 28.9243 233.326 24.9955 233.326H12.3388V225.742H23.7522C26.0399 225.742 27.9131 225.344 29.3719 224.549C30.8307 223.753 31.9082 222.659 32.6044 221.266C33.3173 219.874 33.6737 218.274 33.6737 216.467C33.6737 214.66 33.3173 213.069 32.6044 211.693C31.9082 210.317 30.8224 209.248 29.347 208.485C27.8882 207.706 26.0067 207.317 23.7025 207.317H15.2481V250.534H6.02289ZM47.187 250.534V212.34H55.9149V218.705H56.3128C57.009 216.501 58.2026 214.801 59.8934 213.608C61.6009 212.398 63.5487 211.793 65.7369 211.793C66.2342 211.793 66.7896 211.817 67.4029 211.867C68.0328 211.9 68.555 211.958 68.9695 212.041V220.322C68.5882 220.189 67.9831 220.073 67.1543 219.973C66.342 219.857 65.5546 219.799 64.792 219.799C63.1509 219.799 61.6755 220.156 60.3659 220.869C59.0729 221.565 58.0534 222.535 57.3074 223.778C56.5614 225.021 56.1884 226.455 56.1884 228.08V250.534H47.187ZM86.5359 251.279C82.806 251.279 79.5735 250.459 76.8382 248.818C74.103 247.177 71.9811 244.881 70.4726 241.93C68.9806 238.979 68.2347 235.531 68.2347 231.586C68.2347 227.64 68.9806 224.184 70.4726 221.217C71.9811 218.249 74.103 215.945 76.8382 214.304C79.5735 212.663 82.806 211.842 86.5359 211.842C90.2658 211.842 93.4983 212.663 96.2336 214.304C98.9688 215.945 101.082 218.249 102.574 221.217C104.083 224.184 104.837 227.64 104.837 231.586C104.837 235.531 104.083 238.979 102.574 241.93C101.082 244.881 98.9688 247.177 96.2336 248.818C93.4983 250.459 90.2658 251.279 86.5359 251.279ZM86.5856 244.068C88.6081 244.068 90.2989 243.513 91.6583 242.402C93.0176 241.275 94.0288 239.767 94.6919 237.877C95.3716 235.987 95.7114 233.882 95.7114 231.561C95.7114 229.224 95.3716 227.11 94.6919 225.22C94.0288 223.314 93.0176 221.797 91.6583 220.67C90.2989 219.542 88.6081 218.979 86.5856 218.979C84.5135 218.979 82.7895 219.542 81.4135 220.67C80.0542 221.797 79.0347 223.314 78.3551 225.22C77.692 227.11 77.3604 229.224 77.3604 231.561C77.3604 233.882 77.692 235.987 78.3551 237.877C79.0347 239.767 80.0542 241.275 81.4135 242.402C82.7895 243.513 84.5135 244.068 86.5856 244.068ZM128.322 212.34V219.302H105.744V212.34H128.322ZM111.388 250.534V208.734C111.388 206.165 111.919 204.026 112.979 202.319C114.057 200.611 115.499 199.335 117.306 198.489C119.113 197.644 121.119 197.221 123.324 197.221C124.882 197.221 126.266 197.346 127.476 197.594C128.686 197.843 129.582 198.067 130.162 198.266L128.371 205.228C127.99 205.112 127.509 204.996 126.929 204.88C126.349 204.747 125.702 204.681 124.99 204.681C123.315 204.681 122.13 205.087 121.434 205.899C120.754 206.695 120.414 207.839 120.414 209.331V250.534H111.388ZM131.87 250.534V212.34H140.871V250.534H131.87ZM136.396 206.919C134.97 206.919 133.743 206.446 132.715 205.502C131.688 204.54 131.174 203.388 131.174 202.045C131.174 200.686 131.688 199.534 132.715 198.589C133.743 197.627 134.97 197.147 136.396 197.147C137.838 197.147 139.065 197.627 140.076 198.589C141.104 199.534 141.617 200.686 141.617 202.045C141.617 203.388 141.104 204.54 140.076 205.502C139.065 206.446 137.838 206.919 136.396 206.919ZM176.814 222.435L168.608 223.33C168.376 222.501 167.97 221.722 167.39 220.993C166.826 220.264 166.063 219.675 165.102 219.227C164.14 218.78 162.963 218.556 161.571 218.556C159.698 218.556 158.123 218.962 156.846 219.774C155.587 220.587 154.965 221.639 154.982 222.932C154.965 224.043 155.371 224.947 156.2 225.643C157.045 226.339 158.438 226.911 160.377 227.359L166.892 228.751C170.506 229.53 173.192 230.765 174.949 232.456C176.723 234.147 177.618 236.36 177.634 239.095C177.618 241.499 176.913 243.621 175.521 245.461C174.145 247.284 172.23 248.71 169.777 249.738C167.323 250.766 164.505 251.279 161.322 251.279C156.648 251.279 152.885 250.301 150.033 248.345C147.182 246.373 145.483 243.629 144.936 240.115L153.713 239.269C154.111 240.993 154.957 242.295 156.25 243.173C157.543 244.052 159.225 244.491 161.297 244.491C163.436 244.491 165.152 244.052 166.445 243.173C167.754 242.295 168.409 241.209 168.409 239.916C168.409 238.822 167.986 237.918 167.141 237.205C166.312 236.493 165.019 235.946 163.262 235.564L156.747 234.197C153.083 233.434 150.373 232.149 148.616 230.342C146.859 228.519 145.988 226.215 146.005 223.43C145.988 221.076 146.627 219.037 147.92 217.313C149.229 215.572 151.044 214.229 153.365 213.285C155.703 212.323 158.396 211.842 161.447 211.842C165.922 211.842 169.445 212.795 172.015 214.702C174.601 216.608 176.2 219.186 176.814 222.435ZM211.743 222.435L203.537 223.33C203.305 222.501 202.899 221.722 202.319 220.993C201.755 220.264 200.992 219.675 200.031 219.227C199.069 218.78 197.892 218.556 196.5 218.556C194.627 218.556 193.052 218.962 191.775 219.774C190.516 220.587 189.894 221.639 189.911 222.932C189.894 224.043 190.3 224.947 191.129 225.643C191.974 226.339 193.367 226.911 195.306 227.359L201.821 228.751C205.435 229.53 208.121 230.765 209.878 232.456C211.652 234.147 212.547 236.36 212.563 239.095C212.547 241.499 211.842 243.621 210.45 245.461C209.074 247.284 207.159 248.71 204.706 249.738C202.252 250.766 199.434 251.279 196.251 251.279C191.577 251.279 187.814 250.301 184.962 248.345C182.111 246.373 180.412 243.629 179.865 240.115L188.642 239.269C189.04 240.993 189.886 242.295 191.179 243.173C192.472 244.052 194.154 244.491 196.226 244.491C198.365 244.491 200.081 244.052 201.374 243.173C202.683 242.295 203.338 241.209 203.338 239.916C203.338 238.822 202.915 237.918 202.07 237.205C201.241 236.493 199.948 235.946 198.191 235.564L191.676 234.197C188.012 233.434 185.302 232.149 183.545 230.342C181.788 228.519 180.917 226.215 180.934 223.43C180.917 221.076 181.556 219.037 182.849 217.313C184.158 215.572 185.973 214.229 188.294 213.285C190.632 212.323 193.325 211.842 196.376 211.842C200.851 211.842 204.374 212.795 206.944 214.702C209.53 216.608 211.129 219.186 211.743 222.435ZM216.485 250.534V212.34H225.486V250.534H216.485ZM221.01 206.919C219.585 206.919 218.358 206.446 217.33 205.502C216.302 204.54 215.788 203.388 215.788 202.045C215.788 200.686 216.302 199.534 217.33 198.589C218.358 197.627 219.585 197.147 221.01 197.147C222.452 197.147 223.679 197.627 224.69 198.589C225.718 199.534 226.232 200.686 226.232 202.045C226.232 203.388 225.718 204.54 224.69 205.502C223.679 206.446 222.452 206.919 221.01 206.919ZM247.901 251.279C244.171 251.279 240.939 250.459 238.204 248.818C235.468 247.177 233.347 244.881 231.838 241.93C230.346 238.979 229.6 235.531 229.6 231.586C229.6 227.64 230.346 224.184 231.838 221.217C233.347 218.249 235.468 215.945 238.204 214.304C240.939 212.663 244.171 211.842 247.901 211.842C251.631 211.842 254.864 212.663 257.599 214.304C260.334 215.945 262.448 218.249 263.94 221.217C265.448 224.184 266.203 227.64 266.203 231.586C266.203 235.531 265.448 238.979 263.94 241.93C262.448 244.881 260.334 247.177 257.599 248.818C254.864 250.459 251.631 251.279 247.901 251.279ZM247.951 244.068C249.973 244.068 251.664 243.513 253.024 242.402C254.383 241.275 255.394 239.767 256.057 237.877C256.737 235.987 257.077 233.882 257.077 231.561C257.077 229.224 256.737 227.11 256.057 225.22C255.394 223.314 254.383 221.797 253.024 220.67C251.664 219.542 249.973 218.979 247.951 218.979C245.879 218.979 244.155 219.542 242.779 220.67C241.42 221.797 240.4 223.314 239.72 225.22C239.057 227.11 238.726 229.224 238.726 231.561C238.726 233.882 239.057 235.987 239.72 237.877C240.4 239.767 241.42 241.275 242.779 242.402C244.155 243.513 245.879 244.068 247.951 244.068ZM279.343 228.154V250.534H270.342V212.34H278.945V218.83H279.393C280.271 216.691 281.672 214.992 283.595 213.732C285.535 212.472 287.93 211.842 290.781 211.842C293.417 211.842 295.713 212.406 297.669 213.533C299.642 214.66 301.167 216.293 302.244 218.432C303.338 220.57 303.877 223.165 303.861 226.215V250.534H294.859V227.607C294.859 225.054 294.196 223.057 292.87 221.615C291.56 220.172 289.745 219.451 287.424 219.451C285.849 219.451 284.449 219.799 283.222 220.496C282.012 221.175 281.059 222.162 280.362 223.455C279.683 224.748 279.343 226.314 279.343 228.154ZM320.501 251.304C318.081 251.304 315.901 250.873 313.961 250.011C312.038 249.133 310.513 247.84 309.386 246.132C308.275 244.425 307.72 242.32 307.72 239.816C307.72 237.661 308.118 235.879 308.913 234.47C309.709 233.061 310.795 231.934 312.171 231.088C313.547 230.243 315.097 229.605 316.821 229.174C318.561 228.726 320.36 228.403 322.217 228.204C324.454 227.972 326.27 227.765 327.662 227.582C329.055 227.383 330.066 227.085 330.696 226.687C331.342 226.273 331.666 225.635 331.666 224.773V224.623C331.666 222.75 331.11 221.3 330 220.272C328.889 219.244 327.289 218.73 325.2 218.73C322.996 218.73 321.247 219.211 319.954 220.172C318.677 221.134 317.815 222.269 317.368 223.579L308.963 222.385C309.626 220.065 310.72 218.125 312.245 216.567C313.77 214.992 315.635 213.815 317.84 213.036C320.045 212.24 322.482 211.842 325.151 211.842C326.991 211.842 328.823 212.058 330.646 212.489C332.47 212.92 334.136 213.633 335.644 214.627C337.153 215.605 338.363 216.94 339.274 218.631C340.203 220.322 340.667 222.435 340.667 224.971V250.534H332.014V245.287H331.715C331.168 246.348 330.397 247.342 329.403 248.271C328.425 249.182 327.19 249.92 325.698 250.484C324.222 251.031 322.49 251.304 320.501 251.304ZM322.838 244.69C324.645 244.69 326.212 244.334 327.538 243.621C328.864 242.891 329.884 241.93 330.596 240.736C331.326 239.543 331.69 238.242 331.69 236.832V232.332C331.409 232.564 330.928 232.779 330.248 232.978C329.585 233.177 328.839 233.351 328.01 233.5C327.181 233.65 326.361 233.782 325.549 233.898C324.736 234.014 324.032 234.114 323.435 234.197C322.092 234.379 320.89 234.677 319.829 235.092C318.768 235.506 317.931 236.086 317.318 236.832C316.705 237.562 316.398 238.507 316.398 239.667C316.398 241.325 317.003 242.576 318.213 243.422C319.423 244.267 320.965 244.69 322.838 244.69ZM355.218 199.608V250.534H346.217V199.608H355.218Z" fill="#FFA202"/>
<rect x="0.542259" y="0.876724" width="47.2396" height="9.08453" fill="#FFA202"/>
</svg>
