<svg width="39" height="20" viewBox="0 0 39 20" fill="none" xmlns="http://www.w3.org/2000/svg">
<path d="M38.029 1.48764C37.7712 1.24053 37.4644 1.04438 37.1264 0.91053C36.7884 0.776677 36.4259 0.707764 36.0597 0.707764C35.6936 0.707764 35.331 0.776677 34.993 0.91053C34.655 1.04438 34.3483 1.24053 34.0904 1.48764L21.3871 13.5629C21.1292 13.81 20.8225 14.0062 20.4845 14.14C20.1465 14.2739 19.7839 14.3428 19.4178 14.3428C19.0516 14.3428 18.6891 14.2739 18.3511 14.14C18.0131 14.0062 17.7063 13.81 17.4485 13.5629L4.74515 1.48764C4.4873 1.24053 4.18053 1.04438 3.84254 0.91053C3.50454 0.776677 3.14201 0.707764 2.77585 0.707764C2.4097 0.707764 2.04717 0.776677 1.70917 0.91053C1.37117 1.04438 1.06441 1.24053 0.806558 1.48764C0.289962 1.98163 0 2.64986 0 3.34639C0 4.04293 0.289962 4.71116 0.806558 5.20514L13.5376 17.3068C15.0978 18.788 17.2127 19.62 19.4178 19.62C21.6228 19.62 23.7377 18.788 25.2979 17.3068L38.029 5.20514C38.5456 4.71116 38.8356 4.04293 38.8356 3.34639C38.8356 2.64986 38.5456 1.98163 38.029 1.48764Z" fill="#FFA202"/>
</svg>
